<svg width="25" height="24" viewBox="0 0 25 24" fill="none" xmlns="http://www.w3.org/2000/svg">
<path d="M24.1683 11.6948C24.0771 11.448 23.8964 11.2524 23.6662 11.1432L23.6599 11.1408L22.2731 10.4941L22.5795 9.83724C22.6376 9.71545 22.6714 9.57323 22.6714 9.42237C22.6714 9.03028 22.442 8.69162 22.1096 8.53447L22.1033 8.53211L5.40295 0.744521C5.28116 0.686375 5.13815 0.652588 4.98729 0.652588C4.5952 0.652588 4.25733 0.882028 4.10018 1.21361L4.09782 1.2199L0.492002 8.95327C0.433856 9.07506 0.400069 9.21807 0.400069 9.36894C0.400069 9.76103 0.629508 10.0989 0.961096 10.2561L0.967382 10.2584L7.07503 13.106L5.35424 17.1212H2.26937V14.1746C2.26937 13.6324 1.82935 13.1924 1.28718 13.1924C0.745014 13.1924 0.304993 13.6324 0.304993 14.1746V22.0321C0.304993 22.5743 0.745014 23.0143 1.28718 23.0143C1.82935 23.0143 2.26937 22.5743 2.26937 22.0321V19.0855H6.0017C6.404 19.0855 6.75052 18.8427 6.90217 18.4962L6.90453 18.4899L8.85633 13.9365L17.6685 18.0452C17.7895 18.1034 17.931 18.1371 18.0811 18.1371H18.0834C18.4747 18.1371 18.8126 17.9077 18.9713 17.5769L18.9737 17.5706L19.2801 16.9145L20.6685 17.562C20.7896 17.6201 20.931 17.6539 21.0811 17.6539H21.0834C21.4755 17.6539 21.8134 17.4237 21.9713 17.0921L21.9737 17.0858L24.1376 12.4467C24.1958 12.3249 24.2296 12.1827 24.2296 12.0326C24.2296 11.9116 24.2076 11.7961 24.1675 11.6893L24.1699 11.6963L24.1683 11.6948ZM17.608 15.8498L8.82805 11.7553C8.80447 11.7372 8.77854 11.7183 8.75104 11.701L8.74711 11.6987C8.72433 11.6885 8.69997 11.6916 8.6764 11.6838L2.68896 8.8912L5.46424 2.93834L20.3841 9.89539L17.608 15.8498ZM20.6065 15.365L20.1107 15.1332L21.4441 12.2739L21.9399 12.5057L20.6065 15.365Z" fill="white"/>
</svg>
