<svg width="41" height="33" viewBox="0 0 41 33" fill="none" xmlns="http://www.w3.org/2000/svg">
<path fill-rule="evenodd" clip-rule="evenodd" d="M27.2112 6.48875C27.9652 6.98667 28.173 8.00174 27.675 8.75589L16.2704 26.0291C15.7724 26.7831 14.7574 26.9909 14.0032 26.4929C13.2491 25.995 13.0413 24.98 13.5393 24.2257L24.944 6.95268C25.4419 6.19852 26.4569 5.99078 27.2112 6.48875Z" fill="white"/>
<path fill-rule="evenodd" clip-rule="evenodd" d="M31.3598 10.1796C32.1749 9.78911 33.1522 10.1333 33.5428 10.9483L37.8888 20.0185C38.2374 20.7464 38.0034 21.6197 37.3375 22.0758L29.0387 27.7578C28.2929 28.2684 27.2744 28.0777 26.7638 27.3322C26.2533 26.5864 26.4439 25.568 27.1897 25.0574L34.3312 20.1677L30.5913 12.3624C30.2007 11.5474 30.5448 10.5701 31.3598 10.1796Z" fill="white"/>
<path fill-rule="evenodd" clip-rule="evenodd" d="M14.4499 5.64861C14.9604 6.39432 14.7698 7.41271 14.0241 7.92328L6.88261 12.8129L10.6225 20.6182C11.013 21.4333 10.6689 22.4106 9.85385 22.8012C9.03889 23.1915 8.0616 22.8474 7.6711 22.0324L3.32513 12.9622C2.97638 12.2343 3.21039 11.3609 3.87638 10.9049L12.1752 5.22288C12.9209 4.71232 13.9393 4.90291 14.4499 5.64861Z" fill="white"/>
</svg>
