<svg width="25" height="25" viewBox="0 0 25 25" fill="none" xmlns="http://www.w3.org/2000/svg">
<path d="M19.9968 4.82572C17.1199 4.82572 14.4122 3.6411 12.3814 1.69495C10.3506 3.6411 7.64295 4.82572 4.76602 4.82572C3.58141 4.82572 2.48141 4.57187 1.38141 4.23341C1.38141 16.0796 6.03525 20.818 12.3814 23.6949C18.7276 20.818 23.3814 16.0796 23.3814 4.23341C22.2814 4.57187 21.1814 4.82572 19.9968 4.82572Z" stroke="white" stroke-width="1.5" stroke-miterlimit="10" stroke-linecap="round" stroke-linejoin="round"/>
<path d="M14.9199 17.7719H9.84294C8.91217 17.7719 8.15063 17.0103 8.15063 16.0795V12.6949C8.15063 11.7642 8.91217 11.0026 9.84294 11.0026H14.9199C15.8506 11.0026 16.6122 11.7642 16.6122 12.6949V16.0795C16.6122 17.0103 15.8506 17.7719 14.9199 17.7719Z" stroke="white" stroke-width="1.5" stroke-miterlimit="10" stroke-linecap="round" stroke-linejoin="round"/>
<path d="M15.7661 11.0027H8.99683V9.3104C8.99683 7.44886 10.5199 5.92578 12.3814 5.92578C14.243 5.92578 15.7661 7.44886 15.7661 9.3104V11.0027Z" stroke="white" stroke-width="1.5" stroke-miterlimit="10" stroke-linecap="round" stroke-linejoin="round"/>
<path d="M12.3814 13.5411V15.2334" stroke="white" stroke-width="1.5" stroke-miterlimit="10" stroke-linecap="round" stroke-linejoin="round"/>
</svg>
