<svg width="22" height="36" viewBox="0 0 22 36" fill="none" xmlns="http://www.w3.org/2000/svg">
<path d="M16 24.5381C16 23.0088 16.8426 21.6102 18.1761 20.9263L21.25 19.35L12.0625 0.503839H9.4375L0.25 19.35L3.32387 20.9263C4.65737 21.6102 5.5 23.0088 5.5 24.5381V24.7346H2.875V35.5038H18.625V24.7346H16V24.5381ZM4.49725 18.5181L3.77144 18.1465L9.4375 6.52384V16.6577H12.0625V6.52384L17.7286 18.1452L17.0028 18.5167C14.7649 19.665 13.375 21.9723 13.375 24.5381V24.7346H8.125V24.5381C8.125 21.9723 6.73506 19.665 4.49725 18.5181ZM16 32.8115H5.5V27.4269H16V32.8115Z" fill="white"/>
</svg>
