<svg width="24" height="24" viewBox="0 0 24 24" fill="none" xmlns="http://www.w3.org/2000/svg">
<path d="M13.2713 5.72691C13.2713 5.97254 13.2713 6.77312 13.2713 7.91049H17.1818L16.7579 11.3964H13.2713C13.2713 16.7724 13.2713 23.9765 13.2713 23.9765H8.64357C8.64357 23.9765 8.64357 16.8678 8.64357 11.3964H6.23218V7.91049H8.64357C8.64357 6.52805 8.64357 5.54504 8.64357 5.27134C8.64357 3.96727 8.54532 3.34852 9.09943 2.33799C9.65382 1.32751 11.2176 -0.00814899 13.9222 0.0240073C16.6275 0.0573354 17.7678 0.317585 17.7678 0.317585L17.1818 4.03276C17.1818 4.03276 15.4544 3.57662 14.6064 3.73918C13.7596 3.90179 13.2713 4.42341 13.2713 5.72691Z" fill="#404040"/>
</svg>
