<svg width="25" height="23" viewBox="0 0 25 23" fill="none" xmlns="http://www.w3.org/2000/svg">
<path d="M9.36265 20.3333H5.37515C4.0217 20.3333 3.34496 20.3333 2.82801 20.0699C2.37328 19.8383 2.00357 19.4685 1.77189 19.0138C1.50848 18.4969 1.50848 17.8201 1.50848 16.4667V4.86667C1.50848 3.51321 1.50848 2.83647 1.77189 2.31952C2.00357 1.86479 2.37328 1.49509 2.82801 1.2634C3.34496 1 4.0217 1 5.37515 1H16.9752C18.3286 1 19.0054 1 19.5223 1.2634C19.977 1.49509 20.3468 1.86479 20.5784 2.31952C20.8418 2.83647 20.8418 3.51321 20.8418 4.86667V5.83333H1.50848M1.50848 10.6667H11.1752V5.83333M1.50848 15.5H8.75848M6.34182 1V5.83333M6.34182 10.6667V15.5M16.0085 1V5.83333M21.8428 20.126C19.9553 22.0135 16.895 22.0135 15.0075 20.126C14.0637 19.1823 13.5918 17.9453 13.5918 16.7083C13.5918 15.4714 14.0637 14.2344 15.0075 13.2907C15.0075 13.2907 15.4043 14.2917 16.6127 14.8958C16.6127 13.6875 16.9147 11.875 18.4166 10.6667C19.6335 11.875 20.8969 12.3447 21.8428 13.2907C22.7866 14.2344 23.2585 15.4714 23.2585 16.7083C23.2585 17.9453 22.7866 19.1823 21.8428 20.126Z" stroke="white" stroke-width="2" stroke-linecap="round" stroke-linejoin="round"/>
</svg>
