<svg width="24" height="24" viewBox="0 0 24 24" fill="none" xmlns="http://www.w3.org/2000/svg">
<path d="M8.20412 18.4268C8.99352 19.4875 9.98359 20.3828 11.1181 21.062V17.7889C10.1203 17.8545 9.13807 18.0696 8.20412 18.4268ZM6.88241 19.0466C6.33658 19.3532 5.82053 19.7101 5.34097 20.1125H5.30818C6.80245 21.377 8.63497 22.1753 10.5786 22.4083C9.11576 21.5712 7.85412 20.4237 6.88241 19.0466ZM6.24944 13.1531C6.35111 14.6076 6.76435 15.9768 7.42028 17.1936C8.59729 16.7085 9.84713 16.4236 11.1181 16.3507V13.1531H6.2478H6.24944ZM4.81131 13.1531H1.7645C1.92016 15.3684 2.80861 17.469 4.28984 19.1237C4.85886 18.6317 5.47544 18.1955 6.12973 17.8233C5.36046 16.3791 4.91082 14.7863 4.81131 13.1531ZM16.2344 17.2215C16.9001 15.9965 17.3167 14.6191 17.4216 13.1547H12.5267V16.354C13.8353 16.436 15.0832 16.7377 16.2344 17.2231V17.2215ZM17.5216 17.861C18.148 18.2218 18.74 18.6416 19.2877 19.1138C20.7631 17.4609 21.6478 15.3649 21.8032 13.1547H18.8597C18.7593 14.8018 18.3027 16.4075 17.5216 17.861ZM12.5267 21.0751C13.6619 20.3999 14.6536 19.5084 15.4456 18.4514C14.5113 18.0863 13.5273 17.8641 12.5267 17.7921V21.0767V21.0751ZM13.1187 22.3919C15.0156 22.1396 16.8003 21.3485 18.2612 20.1125H18.2481C17.7854 19.7243 17.2887 19.3786 16.764 19.0794C15.8016 20.4331 14.5581 21.563 13.1187 22.3919ZM7.42192 7.67439C6.74806 8.92365 6.34835 10.3022 6.24944 11.7182H11.1181V8.51562C9.84787 8.4436 8.59861 8.15983 7.42192 7.67603V7.67439ZM6.13137 7.04469C5.47723 6.674 4.86099 6.24011 4.29148 5.74923C2.81059 7.40348 1.92215 9.50342 1.76614 11.7182H4.81131C4.91086 10.0837 5.36108 8.48975 6.13137 7.04469ZM11.1165 3.81095C9.98476 4.48931 8.997 5.38292 8.20904 6.44123C9.1416 6.79683 10.1222 7.01074 11.1181 7.07585V3.81095H11.1165ZM10.5786 2.46465C8.63964 2.69611 6.81089 3.4902 5.31802 4.74893H5.33113C5.81488 5.15561 6.33471 5.51473 6.88405 5.82302C7.85565 4.44729 9.11669 3.30099 10.5786 2.46465ZM15.4407 6.41172C14.6493 5.35807 13.6594 4.46952 12.5267 3.79619V7.07093C13.5256 6.99848 14.5079 6.77626 15.4407 6.41172ZM16.7575 5.78202C17.2816 5.48278 17.7777 5.13703 18.2399 4.74893H18.2497C16.791 3.51982 15.0113 2.7335 13.1203 2.48268C14.5556 3.30916 15.7961 4.435 16.7575 5.78366V5.78202ZM17.4216 11.7182C17.3215 10.289 16.9149 8.89808 16.2294 7.63995C15.0525 8.13465 13.8009 8.42843 12.5267 8.50906V11.7182H17.4216ZM18.8597 11.7182H21.8032C21.6472 9.50342 20.7588 7.40348 19.2779 5.74923C18.7314 6.22114 18.1418 6.6406 17.5167 7.00206C18.2809 8.42215 18.7548 10.0193 18.8597 11.7198V11.7182ZM11.7839 23.9153C8.7395 23.9153 5.81982 22.7059 3.66712 20.5532C1.51443 18.4005 0.305054 15.4808 0.305054 12.4365C0.305054 9.39208 1.51443 6.4724 3.66712 4.31971C5.81982 2.16701 8.7395 0.957642 11.7839 0.957642C14.8282 0.957642 17.7479 2.16701 19.9006 4.31971C22.0533 6.4724 23.2627 9.39208 23.2627 12.4365C23.2627 15.4808 22.0533 18.4005 19.9006 20.5532C17.7479 22.7059 14.8282 23.9153 11.7839 23.9153Z" fill="white"/>
</svg>
