<svg width="28" height="20" viewBox="0 0 28 20" fill="none" xmlns="http://www.w3.org/2000/svg">
<path d="M1.55556 8.42105C0.696453 8.42105 0 9.128 0 10C0 10.872 0.696453 11.5789 1.55556 11.5789V8.42105ZM26.4444 11.5789C27.3035 11.5789 28 10.872 28 10C28 9.128 27.3035 8.42105 26.4444 8.42105V11.5789ZM1.55556 16.8421C0.696453 16.8421 0 17.5491 0 18.4211C0 19.2931 0.696453 20 1.55556 20V16.8421ZM26.4444 20C27.3035 20 28 19.2931 28 18.4211C28 17.5491 27.3035 16.8421 26.4444 16.8421V20ZM1.55556 0C0.696453 0 0 0.706926 0 1.57895C0 2.45097 0.696453 3.15789 1.55556 3.15789V0ZM26.4444 3.15789C27.3035 3.15789 28 2.45097 28 1.57895C28 0.706926 27.3035 0 26.4444 0V3.15789ZM1.55556 11.5789H26.4444V8.42105H1.55556V11.5789ZM1.55556 20H26.4444V16.8421H1.55556V20ZM1.55556 3.15789H26.4444V0H1.55556V3.15789Z" fill="#505050"/>
</svg>
