<svg width="17" height="17" viewBox="0 0 17 17" fill="none" xmlns="http://www.w3.org/2000/svg">
<path d="M8.5 16C6.89182 16 5.73455 15.9992 4.83227 15.9117C3.94034 15.8252 3.36977 15.6591 2.91443 15.373C2.39401 15.046 1.95394 14.606 1.62693 14.0856C1.34091 13.6302 1.17466 13.0597 1.0883 12.1677C1.0008 11.2655 1 10.1082 1 8.5C1 6.89182 1.0008 5.73455 1.0883 4.83227C1.17466 3.94034 1.34091 3.36977 1.62693 2.91443C1.95393 2.39399 2.39399 1.95393 2.91443 1.62693C3.36977 1.34091 3.94034 1.17466 4.83227 1.0883C5.73443 1.0008 6.8917 1 8.5 1C10.1082 1 11.2655 1.0008 12.1677 1.0883C13.0597 1.17466 13.6302 1.34091 14.0856 1.62693C14.606 1.95394 15.046 2.39401 15.373 2.91443C15.6591 3.36977 15.8252 3.94034 15.9117 4.83227C15.9992 5.73455 16 6.89182 16 8.5C16 10.1082 15.9992 11.2655 15.9117 12.1677C15.8252 13.0597 15.6591 13.6302 15.373 14.0856C15.046 14.606 14.606 15.046 14.0856 15.373C13.6302 15.6591 13.0597 15.8252 12.1677 15.9117C11.2655 15.9992 10.1082 16 8.5 16Z" stroke="white" stroke-width="2"/>
<path d="M8.49999 11.9614C10.4117 11.9614 11.9615 10.4116 11.9615 8.49987C11.9615 6.58811 10.4117 5.03833 8.49999 5.03833C6.58824 5.03833 5.03845 6.58811 5.03845 8.49987C5.03845 10.4116 6.58824 11.9614 8.49999 11.9614Z" stroke="white" stroke-width="2"/>
<path d="M13.4615 4.17285C13.4615 4.52334 13.1773 4.80762 12.8268 4.80762C12.4764 4.80754 12.192 4.52329 12.192 4.17285C12.1921 3.82248 12.4764 3.53817 12.8268 3.53809C13.1772 3.53809 13.4615 3.82243 13.4615 4.17285Z" fill="white" stroke="white" stroke-width="3"/>
</svg>
