<svg width="24" height="24" viewBox="0 0 24 24" fill="none" xmlns="http://www.w3.org/2000/svg">
<path d="M12 23C9.64133 23 7.944 22.9988 6.62067 22.8705C5.3125 22.7437 4.47567 22.5 3.80783 22.0803C3.04454 21.6008 2.39911 20.9554 1.9195 20.1922C1.5 19.5243 1.25617 18.6875 1.1295 17.3793C1.00117 16.056 1 14.3587 1 12C1 9.64133 1.00117 7.944 1.1295 6.62067C1.25617 5.3125 1.5 4.47567 1.9195 3.80783C2.3991 3.04452 3.04452 2.3991 3.80783 1.9195C4.47567 1.5 5.3125 1.25617 6.62067 1.1295C7.94383 1.00117 9.64117 1 12 1C14.3587 1 16.056 1.00117 17.3793 1.1295C18.6875 1.25617 19.5243 1.5 20.1922 1.9195C20.9554 2.39911 21.6008 3.04454 22.0803 3.80783C22.5 4.47567 22.7437 5.3125 22.8705 6.62067C22.9988 7.944 23 9.64133 23 12C23 14.3587 22.9988 16.056 22.8705 17.3793C22.7437 18.6875 22.5 19.5243 22.0803 20.1922C21.6008 20.9554 20.9554 21.6008 20.1922 22.0803C19.5243 22.5 18.6875 22.7437 17.3793 22.8705C16.056 22.9988 14.3587 23 12 23Z" stroke="#404040" stroke-width="2"/>
<path d="M12 17.0767C14.8039 17.0767 17.0769 14.8037 17.0769 11.9998C17.0769 9.19587 14.8039 6.92285 12 6.92285C9.19611 6.92285 6.9231 9.19587 6.9231 11.9998C6.9231 14.8037 9.19611 17.0767 12 17.0767Z" stroke="#404040" stroke-width="2"/>
<path d="M18.5769 5.65405C18.5767 5.78126 18.4736 5.88436 18.3464 5.88452C18.2348 5.88452 18.1413 5.80527 18.1199 5.69995L18.115 5.65405C18.115 5.5266 18.219 5.42261 18.3464 5.42261L18.3923 5.42749C18.4977 5.44888 18.5769 5.54242 18.5769 5.65405Z" fill="#404040" stroke="#404040" stroke-width="3"/>
</svg>
