<svg width="25" height="20" viewBox="0 0 25 20" fill="none" xmlns="http://www.w3.org/2000/svg">
<path d="M15.0556 12.5714H18.8889M15.0556 7.42857H18.8889M8.66667 6.78571V5.5M8.66667 6.78571H11.2224M8.66667 6.78571C6.36815 6.78566 6.11348 7.34143 6.11124 8.49893C6.10899 9.65646 6.11123 10 8.66678 10C11.2223 10 11.2224 10.2642 11.2224 11.5C11.2224 12.4287 11.2223 13.2143 8.66678 13.2143M8.66678 13.2143L8.66667 14.5M8.66678 13.2143H6.11124M5.08889 19H19.9111C21.3423 19 22.058 19 22.6047 18.7197C23.0855 18.4732 23.4765 18.0798 23.7214 17.596C24 17.046 24 16.3258 24 14.8857V5.11429C24 3.67416 24 2.95408 23.7214 2.40403C23.4765 1.92017 23.0855 1.5268 22.6047 1.28027C22.058 1 21.3423 1 19.9111 1H5.08889C3.65765 1 2.94202 1 2.39536 1.28027C1.91449 1.5268 1.52354 1.92017 1.27854 2.40403C1 2.95408 1 3.67414 1 5.11429V14.8857C1 16.3258 1 17.046 1.27854 17.596C1.52354 18.0798 1.91449 18.4732 2.39536 18.7197C2.94202 19 3.65764 19 5.08889 19Z" stroke="white" stroke-width="2" stroke-linecap="round" stroke-linejoin="round"/>
</svg>
