<svg width="24" height="21" viewBox="0 0 24 21" fill="none" xmlns="http://www.w3.org/2000/svg">
<path d="M18.835 4.62868H18.8465M15.3731 4.62868H15.3846M18.835 16.2441H18.8465M15.3731 16.2441H15.3846M4.9875 8.11332H18.835C19.9103 8.11332 20.448 8.11332 20.8721 7.93649C21.4376 7.70071 21.8869 7.24846 22.1212 6.67924C22.2968 6.25232 22.2968 5.7111 22.2968 4.62868C22.2968 3.54626 22.2968 3.00505 22.1212 2.57812C21.8869 2.00891 21.4376 1.55666 20.8721 1.32088C20.448 1.14404 19.9103 1.14404 18.835 1.14404H4.9875C3.91215 1.14404 3.37448 1.14404 2.95034 1.32088C2.38485 1.55666 1.93555 2.00891 1.70131 2.57812C1.52563 3.00505 1.52563 3.54626 1.52563 4.62868C1.52563 5.7111 1.52563 6.25232 1.70131 6.67924C1.93555 7.24846 2.38485 7.70071 2.95034 7.93649C3.37448 8.11332 3.91215 8.11332 4.9875 8.11332ZM4.9875 19.7288H18.835C19.9103 19.7288 20.448 19.7288 20.8721 19.552C21.4376 19.3162 21.8869 18.8639 22.1212 18.2947C22.2968 17.8678 22.2968 17.3266 22.2968 16.2441C22.2968 15.1617 22.2968 14.6205 22.1212 14.1936C21.8869 13.6244 21.4376 13.1721 20.8721 12.9363C20.448 12.7595 19.9103 12.7595 18.835 12.7595H4.9875C3.91215 12.7595 3.37448 12.7595 2.95034 12.9363C2.38485 13.1721 1.93555 13.6244 1.70131 14.1936C1.52563 14.6205 1.52563 15.1617 1.52563 16.2441C1.52563 17.3266 1.52563 17.8678 1.70131 18.2947C1.93555 18.8639 2.38485 19.3162 2.95034 19.552C3.37448 19.7288 3.91215 19.7288 4.9875 19.7288Z" stroke="white" stroke-width="2" stroke-linecap="round" stroke-linejoin="round"/>
</svg>
