<svg width="37" height="35" viewBox="0 0 37 35" fill="none" xmlns="http://www.w3.org/2000/svg">
<path d="M2.85823 5.25255L2.37891 6.03087L1.2045 8.06584L0.770385 8.87027L1.4346 9.4951L4.8939 12.8498L5.36771 13.3345L8.7193 12.4364L14.4969 15.7433C11.5167 20.9334 7.72425 27.531 7.5905 27.7627C6.28233 30.0295 7.06276 32.9599 9.34644 34.1734C11.6011 35.4568 14.5189 34.7227 15.7287 32.4632C15.7385 32.4463 15.745 32.435 15.7548 32.418L20.8866 23.4737L29.8482 28.6799L29.9743 28.7226C32.2187 29.9323 35.0726 29.1915 36.2661 26.9603L36.2566 26.9246L36.2922 26.915C37.5603 24.6591 36.7992 21.7474 34.5458 20.5401L34.5006 20.5139L26.9597 16.1886C30.8661 14.7405 33.097 10.5158 32.0595 6.41181L32.0952 6.40226C32.0936 6.37877 32.082 6.35321 32.076 6.33092C32.0725 6.31755 32.0701 6.30863 32.0665 6.29525C31.8243 4.94569 31.201 3.76038 30.2264 2.85077L29.117 1.84825L25.2284 8.58626L23.1747 7.33979L27.1416 0.466118L25.4008 0.244465C24.3775 0.098129 23.2403 0.0970121 22.0459 0.417064C17.6603 1.59218 15.0244 6.15956 16.1999 10.5467C16.3277 11.0237 16.5414 11.4109 16.7318 11.8186C16.3664 12.4517 16.102 12.9622 15.6713 13.7084L9.92937 10.3919L9.02144 7.00347L8.36494 6.83532L3.73123 5.5156L2.85823 5.25255ZM22.6575 2.6998C22.818 2.65681 22.9545 2.72058 23.1141 2.69216L19.9562 8.16396L20.9604 8.77414L25.0582 11.2314L26.0624 11.8416L29.3769 6.09844C29.4697 6.35552 29.7082 6.49708 29.7559 6.79969L29.7845 6.9067C30.6268 10.0499 28.751 13.3002 25.6089 14.1421C25.1899 14.2544 24.6555 14.2925 24.054 14.3294L23.4192 14.3848L23.106 14.9275L13.6942 31.2881L13.6585 31.2977L13.6681 31.3333C13.0946 32.4379 11.6833 32.84 10.4852 32.1479L10.4756 32.1123L10.44 32.1218C9.33564 31.548 8.93346 30.1362 9.62505 28.9378C9.94149 28.3895 16.0522 17.6968 19.0534 12.4963L19.3927 11.9084L19.0424 11.3142C18.8497 10.9692 18.5941 10.3543 18.4818 9.93525C17.6396 6.79203 19.5154 3.54173 22.6575 2.6998ZM3.97935 8.01043L7.09312 8.93462L7.39895 10.076L7.21627 10.3925L6.0753 10.6983L3.71837 8.46265L3.97935 8.01043ZM24.3837 17.414L33.3714 22.575L33.381 22.6107L33.4166 22.6011C34.521 23.1749 34.9232 24.5868 34.2316 25.7851L34.1959 25.7947L34.2055 25.8303C33.632 26.9349 32.2207 27.337 31.0226 26.645L22.061 21.4387L24.3837 17.414Z" fill="white"/>
</svg>
